<svg width="234" height="117" viewBox="0 0 234 117" fill="none" xmlns="http://www.w3.org/2000/svg">
<path d="M67.5634 91.0201V72.8192C67.5634 68.7237 70.8834 65.4037 74.9788 65.4037C79.0743 65.4037 82.3943 68.7237 82.3943 72.8192V89.1368C82.3943 97.1002 88.85 103.556 96.8134 103.556C104.777 103.556 111.232 97.1003 111.232 89.1369V72.8192C111.232 68.7237 114.552 65.4037 118.648 65.4037C122.743 65.4037 126.063 68.7237 126.063 72.8192V91.0201C126.063 105.168 114.594 116.637 100.447 116.637H96.8134H93.1798C79.0322 116.637 67.5634 105.168 67.5634 91.0201Z" fill="#CFFF04"/>
<path d="M234 91.0202V109.221C234 113.317 230.68 116.637 226.584 116.637C222.489 116.637 219.169 113.317 219.169 109.221V92.9035C219.169 84.9401 212.713 78.4845 204.75 78.4845C196.787 78.4845 190.331 84.9401 190.331 92.9035V109.221C190.331 113.317 187.011 116.637 182.915 116.637C178.82 116.637 175.5 113.317 175.5 109.221V91.0202C175.5 76.8726 186.969 65.4037 201.116 65.4037H204.75H208.384C222.531 65.4037 234 76.8726 234 91.0202Z" fill="#CFFF04"/>
<path d="M150.782 65.4037H160.72C164.332 65.4037 167.261 68.332 167.261 71.9441C167.261 75.5563 164.332 78.4845 160.72 78.4845H158.197C153.192 78.4845 149.134 82.5423 149.134 87.5479V109.221C149.134 113.317 145.814 116.637 141.718 116.637C137.623 116.637 134.303 113.317 134.303 109.221V81.8826C134.303 72.7816 141.681 65.4037 150.782 65.4037Z" fill="#CFFF04"/>
<path d="M8.75161 60.3168C12.8713 67.9472 7.92768 73.0342 5.04388 77.0311C15.3432 67.9472 40.4734 56.6106 58.6001 83.9348C54.7551 73.2764 46.3405 67.5839 23.1706 49.4162C0.000630191 31.2484 5.53823 25.8708 7.51564 0L0.924098 23.618C-2.78365 38.5155 5.65833 54.5875 8.75161 60.3168Z" fill="#CFFF04"/>
<path d="M59.8361 90.8385C59.8361 105.287 46.556 117 30.1741 117C13.7922 117 0.512131 105.287 0.512131 90.8385C0.512131 76.3899 13.7922 64.677 30.1741 64.677C46.556 64.677 59.8361 76.3899 59.8361 90.8385ZM15.32 90.8385C15.32 98.0741 21.9704 103.94 30.1741 103.94C38.3778 103.94 45.0282 98.0741 45.0282 90.8385C45.0282 83.6029 38.3778 77.7374 30.1741 77.7374C21.9704 77.7374 15.32 83.6029 15.32 90.8385Z" fill="#CFFF04"/>
</svg>
