<svg width="422" height="212" viewBox="0 0 422 212" fill="none" xmlns="http://www.w3.org/2000/svg">
<path d="M236.359 119.106V94.9824C236.359 90.4144 240.062 86.7112 244.63 86.7112C249.198 86.7112 252.901 90.4143 252.901 94.9824V118.877C252.901 127.759 260.102 134.959 268.984 134.959C277.866 134.959 285.067 127.759 285.067 118.877V94.9824C285.067 90.4144 288.77 86.7112 293.338 86.7112C297.906 86.7112 301.609 90.4143 301.609 94.9824V119.106C301.609 136.998 286.876 151.502 268.984 151.502C251.093 151.502 236.359 136.998 236.359 119.106Z" fill="#151B33"/>
<path d="M422 119.107V143.231C422 147.799 418.297 151.502 413.729 151.502C409.161 151.502 405.458 147.799 405.458 143.231V119.336C405.458 110.454 398.257 103.254 389.375 103.254C380.493 103.254 373.292 110.454 373.292 119.336V143.231C373.292 147.799 369.589 151.502 365.021 151.502C360.453 151.502 356.75 147.799 356.75 143.231V119.107C356.75 101.215 371.484 86.7113 389.375 86.7113C407.266 86.7113 422 101.215 422 119.107Z" fill="#151B33"/>
<path d="M329.18 86.7113H339.289C343.857 86.7113 347.56 90.4144 347.56 94.9824C347.56 99.5504 343.857 103.254 339.289 103.254H337.451C331.868 103.254 327.342 107.78 327.342 113.363V143.231C327.342 147.799 323.638 151.502 319.07 151.502C314.502 151.502 310.799 147.799 310.799 143.231V105.092C310.799 94.9404 319.028 86.7113 329.18 86.7113Z" fill="#151B33"/>
<path d="M203.152 75.0454C202.097 85.6983 209.822 89.3599 214.6 93C199.783 86.168 168.444 82.0543 161.1 121.5C160.555 107.355 166.557 98.1446 183.194 67.6396C199.83 37.1346 191.65 32.8748 178.37 2.89184L195.553 28.4223C205.917 44.6992 203.944 67.0468 203.152 75.0454Z" fill="#151B33"/>
<path d="M162.89 130.775C169.139 147.945 188.245 156.755 205.563 150.451C222.881 144.148 231.854 125.119 225.605 107.949C219.356 90.7787 200.25 81.9694 182.932 88.2728C165.614 94.5761 156.641 113.605 162.89 130.775ZM209.951 113.647C213.08 122.245 208.587 131.774 199.914 134.931C191.241 138.087 181.674 133.676 178.544 125.078C175.415 116.479 179.908 106.95 188.581 103.793C197.253 100.637 206.821 105.048 209.951 113.647Z" fill="#151B33"/>
<path d="M152.169 119.085C152.169 137.357 137.357 152.169 119.085 152.169C100.812 152.169 86 137.357 86 119.085C86 100.812 100.812 86 119.085 86C137.357 86 152.169 100.812 152.169 119.085ZM102.516 119.085C102.516 128.235 109.934 135.653 119.085 135.653C128.235 135.653 135.653 128.235 135.653 119.085C135.653 109.934 128.235 102.516 119.085 102.516C109.934 102.516 102.516 109.934 102.516 119.085Z" fill="#151B33"/>
<rect x="34" y="86" width="43" height="16" rx="8" fill="#151B33"/>
<path d="M44.1655 211.25H8.27113C3.70311 211.25 0 207.547 0 202.979C0 198.411 3.7031 194.708 8.27112 194.708H44.1655C53.0477 194.708 60.2482 187.507 60.2482 178.625C60.2482 169.743 53.0478 162.542 44.1655 162.542H20.2711C15.7031 162.542 12 158.839 12 154.271C12 149.703 15.7031 146 20.2711 146H44.3952C62.2866 146 76.7905 160.734 76.7905 178.625C76.7905 196.643 62.1838 211.25 44.1655 211.25Z" fill="#151B33"/>
<path d="M72.169 119.085C72.169 137.357 57.3566 152.169 39.0845 152.169C20.8124 152.169 6 137.357 6 119.085C6 100.812 20.8124 86 39.0845 86C57.3566 86 72.169 100.812 72.169 119.085ZM22.5165 119.085C22.5165 128.235 29.9342 135.653 39.0845 135.653C48.2348 135.653 55.6525 128.235 55.6525 119.085C55.6525 109.934 48.2348 102.516 39.0845 102.516C29.9342 102.516 22.5165 109.934 22.5165 119.085Z" fill="#151B33"/>
</svg>
