<svg width="259" height="144" viewBox="0 0 259 144" fill="none" xmlns="http://www.w3.org/2000/svg">
<path d="M74.7817 112.025V88.7046C74.7817 84.1716 78.4564 80.4969 82.9894 80.4969C87.5224 80.4969 91.1972 84.1716 91.1972 88.7046V111.494C91.1972 120.308 98.3425 127.453 107.157 127.453C115.971 127.453 123.116 120.308 123.116 111.494V88.7046C123.116 84.1716 126.791 80.4969 131.324 80.4969C135.857 80.4969 139.532 84.1716 139.532 88.7046V112.025C139.532 129.437 125.416 143.553 108.004 143.553H107.157H106.31C88.8972 143.553 74.7817 129.437 74.7817 112.025Z" fill="#CFFF04"/>
<path d="M259 112.025V135.345C259 139.878 255.325 143.553 250.792 143.553C246.259 143.553 242.585 139.878 242.585 135.345V112.556C242.585 103.742 235.439 96.5963 226.625 96.5963C217.811 96.5963 210.665 103.742 210.665 112.556V135.345C210.665 139.878 206.991 143.553 202.458 143.553C197.925 143.553 194.25 139.878 194.25 135.345V112.025C194.25 94.6125 208.366 80.4969 225.778 80.4969H226.625H227.472C244.884 80.4969 259 94.6125 259 112.025Z" fill="#CFFF04"/>
<path d="M166.891 80.4969H177.081C181.526 80.4969 185.13 84.1009 185.13 88.5466C185.13 92.9923 181.526 96.5963 177.081 96.5963H175.099C169.558 96.5963 165.067 101.088 165.067 106.628V135.345C165.067 139.878 161.392 143.553 156.859 143.553C152.326 143.553 148.651 139.878 148.651 135.345V98.7364C148.651 88.663 156.818 80.4969 166.891 80.4969Z" fill="#CFFF04"/>
<path d="M9.68661 74.236C14.2465 83.6273 8.77466 89.8882 5.58275 94.8075C16.9824 83.6273 44.7975 69.6745 64.8608 103.304C60.605 90.1863 51.2914 83.1801 25.6461 60.8199C0.000697519 38.4596 6.12992 31.841 8.3186 0L1.02283 29.0683C-3.08105 47.4037 6.26285 67.1846 9.68661 74.236Z" fill="#CFFF04"/>
<path d="M66.2288 111.801C66.2288 129.584 51.5299 144 33.3978 144C15.2658 144 0.566864 129.584 0.566864 111.801C0.566864 94.0184 15.2658 79.6025 33.3978 79.6025C51.5299 79.6025 66.2288 94.0184 66.2288 111.801ZM16.9568 111.801C16.9568 120.707 24.3177 127.926 33.3978 127.926C42.478 127.926 49.8389 120.707 49.8389 111.801C49.8389 102.896 42.478 95.6768 33.3978 95.6768C24.3177 95.6768 16.9568 102.896 16.9568 111.801Z" fill="#CFFF04"/>
</svg>
