<svg width="308" height="189" viewBox="0 0 308 189" fill="none" xmlns="http://www.w3.org/2000/svg">
<rect width="307.206" height="189" rx="50" fill="black"/>
<path d="M105.155 127.065V105.072C105.155 100.918 108.524 97.5497 112.678 97.5497C116.833 97.5497 120.201 100.918 120.201 105.072V126.882C120.201 134.96 126.75 141.509 134.829 141.509C142.907 141.509 149.456 134.96 149.456 126.882V105.072C149.456 100.918 152.824 97.5497 156.979 97.5497C161.134 97.5497 164.502 100.918 164.502 105.072V127.065C164.502 143.367 151.13 156.581 134.829 156.581C118.528 156.581 105.155 143.367 105.155 127.065Z" fill="#CFFF04"/>
<path d="M274 127.066V149.059C274 153.213 270.632 156.581 266.477 156.581C262.322 156.581 258.954 153.213 258.954 149.059V127.249C258.954 119.171 252.405 112.622 244.327 112.622C236.248 112.622 229.699 119.171 229.699 127.249V149.059C229.699 153.213 226.331 156.581 222.176 156.581C218.022 156.581 214.654 153.213 214.654 149.059V127.066C214.654 110.764 228.026 97.5497 244.327 97.5497C260.628 97.5497 274 110.764 274 127.066Z" fill="#CFFF04"/>
<path d="M189.578 97.5497H198.759C202.921 97.5497 206.295 100.924 206.295 105.086C206.295 109.248 202.921 112.622 198.759 112.622H197.101C192.023 112.622 187.906 116.738 187.906 121.816V149.059C187.906 153.213 184.538 156.581 180.383 156.581C176.229 156.581 172.86 153.213 172.86 149.059V114.267C172.86 105.034 180.345 97.5497 189.578 97.5497Z" fill="#CFFF04"/>
<path d="M45.4929 91.6885C49.6722 100.48 44.6571 106.342 41.7315 110.947C52.1798 100.48 77.6736 87.4181 96.0626 118.902C92.1619 106.621 83.6256 100.062 60.1205 79.1286C36.6153 58.1954 42.233 51.9992 44.2391 22.1903L37.5522 49.4034C33.7908 66.5687 42.3549 85.0871 45.4929 91.6885Z" fill="#CFFF04"/>
<path d="M97.3165 126.856C97.3165 143.504 83.8442 157 67.2254 157C50.6065 157 37.1343 143.504 37.1343 126.856C37.1343 110.208 50.6065 96.7124 67.2254 96.7124C83.8442 96.7124 97.3165 110.208 97.3165 126.856ZM52.1564 126.856C52.1564 135.193 58.903 141.952 67.2254 141.952C75.5478 141.952 82.2944 135.193 82.2944 126.856C82.2944 118.519 75.5478 111.761 67.2254 111.761C58.903 111.761 52.1564 118.519 52.1564 126.856Z" fill="#CFFF04"/>
</svg>
