<svg width="424" height="212" viewBox="0 0 424 212" fill="none" xmlns="http://www.w3.org/2000/svg">
<path d="M237.359 119.106V94.9824C237.359 90.4144 241.062 86.7112 245.63 86.7112C250.198 86.7112 253.901 90.4143 253.901 94.9824V118.877C253.901 127.759 261.102 134.959 269.984 134.959C278.866 134.959 286.067 127.759 286.067 118.877V94.9824C286.067 90.4144 289.77 86.7112 294.338 86.7112C298.906 86.7112 302.609 90.4143 302.609 94.9824V119.106C302.609 136.998 287.876 151.502 269.984 151.502C252.093 151.502 237.359 136.998 237.359 119.106Z" fill="white" stroke="black"/>
<path d="M423 119.107V143.231C423 147.799 419.297 151.502 414.729 151.502C410.161 151.502 406.458 147.799 406.458 143.231V119.336C406.458 110.454 399.257 103.254 390.375 103.254C381.493 103.254 374.292 110.454 374.292 119.336V143.231C374.292 147.799 370.589 151.502 366.021 151.502C361.453 151.502 357.75 147.799 357.75 143.231V119.107C357.75 101.215 372.484 86.7113 390.375 86.7113C408.266 86.7113 423 101.215 423 119.107Z" fill="white" stroke="black"/>
<path d="M330.18 86.7113H340.289C344.857 86.7113 348.56 90.4144 348.56 94.9824C348.56 99.5504 344.857 103.254 340.289 103.254H338.451C332.868 103.254 328.342 107.78 328.342 113.363V143.231C328.342 147.799 324.638 151.502 320.07 151.502C315.502 151.502 311.799 147.799 311.799 143.231V105.092C311.799 94.9404 320.028 86.7113 330.18 86.7113Z" fill="white" stroke="black"/>
<path d="M204.152 75.0454C203.097 85.6983 210.822 89.3599 215.6 93C200.783 86.168 169.444 82.0543 162.1 121.5C161.555 107.355 167.557 98.1446 184.194 67.6396C200.83 37.1346 192.65 32.8748 179.37 2.89184L196.553 28.4223C206.917 44.6992 204.944 67.0468 204.152 75.0454Z" fill="white" stroke="black"/>
<mask id="path-5-inside-1_1_2" fill="white">
<path d="M163.89 130.775C170.139 147.945 189.245 156.755 206.563 150.451C223.881 144.148 232.854 125.119 226.605 107.949C220.356 90.7787 201.25 81.9694 183.932 88.2728C166.614 94.5761 157.641 113.605 163.89 130.775ZM210.951 113.647C214.08 122.245 209.587 131.774 200.914 134.931C192.241 138.087 182.674 133.676 179.544 125.078C176.415 116.479 180.908 106.95 189.581 103.793C198.254 100.637 207.821 105.048 210.951 113.647Z"/>
</mask>
<path d="M163.89 130.775C170.139 147.945 189.245 156.755 206.563 150.451C223.881 144.148 232.854 125.119 226.605 107.949C220.356 90.7787 201.25 81.9694 183.932 88.2728C166.614 94.5761 157.641 113.605 163.89 130.775ZM210.951 113.647C214.08 122.245 209.587 131.774 200.914 134.931C192.241 138.087 182.674 133.676 179.544 125.078C176.415 116.479 180.908 106.95 189.581 103.793C198.254 100.637 207.821 105.048 210.951 113.647Z" fill="white" stroke="black" stroke-width="2" mask="url(#path-5-inside-1_1_2)"/>
<mask id="path-6-inside-2_1_2" fill="white">
<path d="M153.169 119.085C153.169 137.357 138.357 152.169 120.085 152.169C101.812 152.169 87 137.357 87 119.085C87 100.812 101.812 86 120.085 86C138.357 86 153.169 100.812 153.169 119.085ZM103.516 119.085C103.516 128.235 110.934 135.653 120.085 135.653C129.235 135.653 136.653 128.235 136.653 119.085C136.653 109.934 129.235 102.516 120.085 102.516C110.934 102.516 103.516 109.934 103.516 119.085Z"/>
</mask>
<path d="M153.169 119.085C153.169 137.357 138.357 152.169 120.085 152.169C101.812 152.169 87 137.357 87 119.085C87 100.812 101.812 86 120.085 86C138.357 86 153.169 100.812 153.169 119.085ZM103.516 119.085C103.516 128.235 110.934 135.653 120.085 135.653C129.235 135.653 136.653 128.235 136.653 119.085C136.653 109.934 129.235 102.516 120.085 102.516C110.934 102.516 103.516 109.934 103.516 119.085Z" fill="white" stroke="black" stroke-width="2" mask="url(#path-6-inside-2_1_2)"/>
<rect x="35.5" y="86.5" width="42" height="15" rx="7.5" fill="white" stroke="black"/>
<path d="M45.1655 211.25H9.27113C4.70311 211.25 1 207.547 1 202.979C1 198.411 4.7031 194.708 9.27112 194.708H45.1655C54.0477 194.708 61.2482 187.507 61.2482 178.625C61.2482 169.743 54.0478 162.542 45.1655 162.542H21.2711C16.7031 162.542 13 158.839 13 154.271C13 149.703 16.7031 146 21.2711 146H45.3952C63.2866 146 77.7905 160.734 77.7905 178.625C77.7905 196.643 63.1838 211.25 45.1655 211.25Z" fill="white" stroke="black"/>
<mask id="path-9-inside-3_1_2" fill="white">
<path d="M73.169 119.085C73.169 137.357 58.3566 152.169 40.0845 152.169C21.8124 152.169 7 137.357 7 119.085C7 100.812 21.8124 86 40.0845 86C58.3566 86 73.169 100.812 73.169 119.085ZM23.5165 119.085C23.5165 128.235 30.9342 135.653 40.0845 135.653C49.2348 135.653 56.6525 128.235 56.6525 119.085C56.6525 109.934 49.2348 102.516 40.0845 102.516C30.9342 102.516 23.5165 109.934 23.5165 119.085Z"/>
</mask>
<path d="M73.169 119.085C73.169 137.357 58.3566 152.169 40.0845 152.169C21.8124 152.169 7 137.357 7 119.085C7 100.812 21.8124 86 40.0845 86C58.3566 86 73.169 100.812 73.169 119.085ZM23.5165 119.085C23.5165 128.235 30.9342 135.653 40.0845 135.653C49.2348 135.653 56.6525 128.235 56.6525 119.085C56.6525 109.934 49.2348 102.516 40.0845 102.516C30.9342 102.516 23.5165 109.934 23.5165 119.085Z" fill="white" stroke="black" stroke-width="2" mask="url(#path-9-inside-3_1_2)"/>
</svg>
